<svg id="Layer_1" data-name="Layer 1" xmlns="http://www.w3.org/2000/svg" viewBox="0 0 282.11 334.47"><defs><style>.cls-1{fill:#fff;}</style></defs><path class="cls-1" d="M191.54,221.28c1-1.24.67-2.63.85-3.86.28-1.94.86-3.47,2.83-3.78s3.27.68,4.16,2.64c.39.85-.17,2.58,1.73,2.39,1.36-.14,1.81-1,2.33-2.08.92-2,2.18-3.77,4.46-3.34s3,2.43,3,4.79c0,.81.21,1.77,1.19,1.8s1.31-.69,1.61-1.52c.81-2.2,2.14-3.7,4.48-3s3.25,2.54,2.6,5.2c-.16.66-.2,1.45.71,1.68a1.8,1.8,0,0,0,2.29-.81,14.37,14.37,0,0,0,.83-2.31c.66-1.92,1.91-3,3.79-2.48s3.23,1.51,2.81,4c-.34,2-.14,3.45,2.35,3s3-1.6,1.88-3.91a8.13,8.13,0,0,0-.57-.87c-4-6.41-3.47-11.45,1.46-17.15,1.56-1.79,3.77-3,3.76-6.27s-1.1-3.61-3.43-2.44l-1.81.86c-.73-1.3-.3-2.61-.37-3.85s0-2.5,0-4a11.7,11.7,0,0,1,1.22.54c3.63,2.41,3.69,2.42,4.26-2.21.38-3,1.33-5.54,4.48-5.41,2.82.12,4,2.49,4.39,5.31.67,4.87,1.06,5,5.1,2v7.33a4.53,4.53,0,0,1-.9,0c-1.34-.28-3.08-2.53-3.86-.57-.68,1.7-1.08,4.36.78,6.28a27.93,27.93,0,0,1,4.62,5.46,12.31,12.31,0,0,1-.82,14.16c-.76,1-1.56,2.18-.92,3.55s2,1.06,3.2,1.19c1.48.18,1.61-.63,1.41-1.9-.4-2.52.18-4.54,2.74-5.1s3.52,1.15,4.13,3.46c.21.81.33,2.23,1.47,1.93.91-.25,1.28-1.39,1.57-2.47,1.09-3.95,3-5.19,5.53-3.91a4.4,4.4,0,0,1,2,2.67c.38.95.93,1.82,1.89,1.59.78-.18,1-1.16,1-2.05.07-2.18.69-4,2.92-4.5s3.34,1.3,4.36,3c2,3.29,2.76,3.27,4.41-.27.84-1.83,2.15-2.64,4-2.35s2.51,1.5,2.78,3.39c.2,1.35-.06,2.85.77,4.06.84,0,1.1-.8,1.44-1.35,1.23-2,2.79-2.6,4.71-1.27s1.78,3.33,1.19,5.34c-.31,1-1.83,1.85-.8,3.07.89,1.06,2,.15,3-.23,1.79-.67,3.24.07,4.2,1.75,1.08,1.87.25,3.39-1,4.72-.73.79-2.23,1.17-1.81,2.6s1.86.82,2.88.93a3.26,3.26,0,0,1,2.92,2.88,3.48,3.48,0,0,1-1.33,3.73,17.28,17.28,0,0,1-2.34,1.22,1.94,1.94,0,0,0-1.22,1.9c.08.89.89.8,1.52,1,2,.58,3.84,1.61,3.73,4.21s-1.79,3.58-4.1,3.37a1.57,1.57,0,0,0-1.8,1.19c-.32,1.11.4,1.42,1.19,1.65,2.37.71,2.66,2.66,2,4.72-.71,2.21-2.43,3.13-4.47,2.33-1.65-.64-2.72-.74-3.11,1.48-1,5.85-3.26,11.27-5,16.87a28.63,28.63,0,0,0-1.22,12.93,3.11,3.11,0,0,1-1.07,3c-1.89,1.92-4.44,2.78-6.24,4.88-.76.89-2.13.28-3.14,0-18-5.4-36.34-5.86-54.77-5.25-10.24.34-20.27,2.58-30.23,5.06-4.9,1.21-11.22-4.11-10.83-9.4a33.85,33.85,0,0,0-2-13.21c-1.53-4.68-3.37-9.24-4.19-14.18-.32-2-1-3.31-3.31-2.24-2,.92-3.79-.09-4.48-2.29-.63-2-.38-4,2-4.72.67-.18,1.34-.47,1.22-1.33-.19-1.35-1.18-1.56-2.23-1.5a3.17,3.17,0,0,1-3.71-3.07c-.3-2.33,1.21-3.37,2.82-4.26a2,2,0,0,1,.62-.25c.72-.12,1.73.11,1.82-1s-.7-1.65-1.57-2c-.3-.13-.63-.19-.92-.34-1.75-.9-2.85-2.28-2.42-4.5a3.22,3.22,0,0,1,3.58-2.88c.82,0,1.92.26,2.24-.91s-.65-1.61-1.33-2.19c-1.57-1.33-2.76-2.93-1.5-5.13,1.11-1.94,2.76-2.57,4.79-1.47.79.42,1.73.74,2.46,0s.14-1.5-.28-2.2c-1.34-2.25-1.57-4.5.64-6.2s3.81-.2,5.08,1.85A6.61,6.61,0,0,0,191.54,221.28Zm4.64,43.89a139.53,139.53,0,0,1,5.71,17,43.35,43.35,0,0,0-5-3.5c-2.39-1.21-4.38.24-4.23,2.81.27,4.71,5.38,9.92,9.7,9.9s11.28-5.52,12.3-10.14c.71-3.23.32-6.36-2-8.9-1.26-1.36-2.7-2.29-4.36-1.45s-2,2.36-1.69,4.22c.13.86.55,2.21-.55,2.42a3.19,3.19,0,0,1-2.66-1,5.9,5.9,0,0,1,2.9-9.86c3.77-.78,4.2-2.9,4.31-6.11.06-2.13-.79-5.59,1.23-5.92s3.2,3,3.7,5.26c.79,3.48,1.93,4.16,5.09,2.66,4.1-2,7.57,1.53,6.58,6.24a7.76,7.76,0,0,1-1.59,3.93,24.9,24.9,0,0,0-2-3.7c-1.08-1.41-2.54-2.39-4.32-1.64s-1.53,2.43-1.48,4c.21,7,4.63,11.3,11.69,11.37a11.47,11.47,0,0,0,11.79-11.11c.21-3.55-1-4.52-4.28-4.39-2.72.11-3.46,2.77-5.36,4.52v-14c1,1,1.63,1.73,2.34,2.4,1.64,1.55,3.52,2.7,5.61,1.35s1.81-3.84,1.41-6.09a5.78,5.78,0,0,0-.84-2.3c-2.92-4-3.35-8.61-3.1-13.48.12-2.12-.23-4.26-.15-6.39.1-2.84-1.3-4-3.61-4.51-9.24-2.19-18.51-4.26-28-5.17-15-1.44-24.68,10.52-21.26,26.45.71,3.31,1.71,6.75,5.46,7.62,1.53.35,1.33,1.45,1.27,2.71-.15,3.43-.19,6.87-.24,10.31,0,1.37.16,2.8,1.7,3s1.89-1.28,2.25-2.51C195.09,269.37,195.54,267.55,196.18,265.17Zm96.26-.3c.71,2.7,1.14,4.54,1.68,6.34.36,1.21.71,2.69,2.26,2.48s1.69-1.6,1.69-3a71,71,0,0,0-.07-8.51c-.36-2.83-.19-4.67,2.89-5.28.91-.18,1.86-1.68,2.32-2.8,6.57-16-3.1-30.75-16.57-30.57-8.87.12-17.53,2-26.1,4-9.35,2.28-9,0-8.93,12,0,4.85-.2,9.44-3.05,13.5a8.54,8.54,0,0,0-1.12,3.67c-.22,1.8-.07,3.68,1.53,4.76s3.37.55,4.86-.62c1-.8,1.9-1.78,2.94-2.77.63,4.93.52,10.85-.23,13.24a28.67,28.67,0,0,0-2.29-3c-1.51-1.52-3.39-1.45-5.23-.93-1.42.4-1.6,1.75-1.67,3.11a11.59,11.59,0,0,0,12.17,12.14c7.19-.17,11.94-5.4,11.32-12.46-.26-3-2.12-3.9-4.58-2.39-1.78,1.09-2,3.35-3.35,4.82a12,12,0,0,1-1.53-4.66c-.45-3.59,2.61-7.28,5.48-5.79,4.66,2.43,5.82,0,7-4,.47-1.59,1.52-4.06,3-3.7s1.12,3,1.15,4.69c.07,3.66-.08,6.76,4.73,7.63,4.21.76,5.42,6.63,2.67,9.54a3.12,3.12,0,0,1-2.94,1.06c-1-.27-.53-1.61-.42-2.5.23-1.84-.28-3.41-1.82-4.15s-3,.07-4.12,1.32a8.37,8.37,0,0,0-2.31,4.59c-.8,6,3.49,12,9.95,13.84,5,1.45,9.63-1.52,11.75-7.47.58-1.61.67-3.14-.49-4.26s-2.67-.64-3.92.16-2.64,1.92-4.37,3.18c.81-2.8,1.42-5.17,2.18-7.48C290,271.72,291.05,268.77,292.44,264.87Zm-48.05-52.73v0c1.64,0,3.28-.05,4.91,0,1.21.05,2.23-.21,2.61-1.57a2.57,2.57,0,0,0-1.17-3c-2.26-1.12-3.15-3.05-3.63-5.5-.29-1.48-1.1-2.61-2.67-2.66a2.71,2.71,0,0,0-2.81,2.46c-.56,2.5-1.37,4.64-3.79,5.79a2.52,2.52,0,0,0-1.06,3.08,2.15,2.15,0,0,0,2.37,1.46C240.9,212.12,242.64,212.14,244.39,212.14ZM268,288.48H266.5c-1.3,0-2.83-.15-3.07,1.77-.2,1.66,1,2.49,2.23,3.14,2.12,1.16,4.43,1,6.72,1,.89,0,1.77-.25,2-1.38a2.5,2.5,0,0,0-.88-2.5A6.72,6.72,0,0,0,268,288.48Zm-46.75,0a7.06,7.06,0,0,0-6.19,2c-1.05,1.1-1.53,2.45,0,3.53,1.91,1.32,8.16,0,9.52-2,1.25-1.81.86-3.1-1.23-3.55A10.17,10.17,0,0,0,221.28,288.51Zm22.85-7.14a34,34,0,0,1-2.32,3.15c-1.65,1.78-1.83,3.25-.13,5.34,2.63,3.24,2.35,3.29,5-.13,1.47-1.89,1.61-3.27,0-5A35.66,35.66,0,0,1,244.13,281.37Zm-45.36,14.17c0-2.34-2.5-4.9-4.57-4.61-2.26.32-1.65,2.76-2.06,4.22-.47,1.71,2.92,5.55,4.49,5.15C199,299.7,198.15,297.06,198.77,295.54Zm91.22.29c.57,1.28-.32,4,2.05,4.44,1.81.35,4.88-3.28,4.52-5.16-.33-1.7-.43-4.3-2.77-4C291.77,291.35,289.74,292.43,290,295.83Z" transform="translate(-105.05 -178.87)"/><path class="cls-1" d="M105.6,351.21l4.85-21.44h6.9a9.6,9.6,0,0,1,4.82,1.12,7.44,7.44,0,0,1,3,3.08,9.66,9.66,0,0,1,1,4.57,15.33,15.33,0,0,1-.81,5.08,11.77,11.77,0,0,1-2.34,4,10.38,10.38,0,0,1-3.69,2.63,12.15,12.15,0,0,1-4.87.93Zm5.19-3.58h3.74a6.19,6.19,0,0,0,3.08-.75,6.72,6.72,0,0,0,2.27-2,9.45,9.45,0,0,0,1.39-2.87,11.56,11.56,0,0,0,.48-3.3,6.82,6.82,0,0,0-.54-2.8,4.24,4.24,0,0,0-1.62-1.88,5.07,5.07,0,0,0-2.75-.68H114Z" transform="translate(-105.05 -178.87)"/><path class="cls-1" d="M127.44,351.21,131.11,335h3.77l-.76,5.1-.28-.42A8.83,8.83,0,0,1,135.2,337a6.16,6.16,0,0,1,2-1.73,5.26,5.26,0,0,1,2.53-.62,5.75,5.75,0,0,1,.91.06,2.18,2.18,0,0,1,.65.23l-1.11,3.87a3,3,0,0,0-.73-.26,4.15,4.15,0,0,0-1-.1,4.51,4.51,0,0,0-2.06.5,4.81,4.81,0,0,0-1.71,1.55,7.88,7.88,0,0,0-1.11,2.72l-1.8,8Z" transform="translate(-105.05 -178.87)"/><path class="cls-1" d="M148.43,335l-3.67,16.25h-4.34L144.09,335Zm-1.36-2.34a2.75,2.75,0,0,1-1.81-.55,1.78,1.78,0,0,1-.57-1.62,2.76,2.76,0,0,1,.84-2,3,3,0,0,1,2-.63,2.8,2.8,0,0,1,1.84.55,1.75,1.75,0,0,1,.57,1.59,2.73,2.73,0,0,1-.86,2A3.07,3.07,0,0,1,147.07,332.62Z" transform="translate(-105.05 -178.87)"/><path class="cls-1" d="M162.54,335h4.85l-9.47,16.25h-5L150.64,335h4.28l1.23,14.75-.92-.16Z" transform="translate(-105.05 -178.87)"/><path class="cls-1" d="M174.89,351.5a8.09,8.09,0,0,1-4-.94,6.71,6.71,0,0,1-2.63-2.6,7.64,7.64,0,0,1-.93-3.8,10.78,10.78,0,0,1,1-4.81,8.29,8.29,0,0,1,3-3.41,8.44,8.44,0,0,1,4.71-1.27,7.32,7.32,0,0,1,3.72.88,5.66,5.66,0,0,1,2.34,2.5,8.55,8.55,0,0,1,.81,3.86q0,.66-.06,1.32a7.67,7.67,0,0,1-.25,1.32H170v-3.09h10l-1.36.91a4.22,4.22,0,0,0,.15-.76c0-.23,0-.45,0-.67a3.52,3.52,0,0,0-.35-1.64,2.47,2.47,0,0,0-1-1,3.05,3.05,0,0,0-1.52-.36,3.8,3.8,0,0,0-2.17.58,4.25,4.25,0,0,0-1.39,1.55,7.23,7.23,0,0,0-.75,2.09,11.56,11.56,0,0,0-.22,2.24,4.33,4.33,0,0,0,.46,2.07,3.34,3.34,0,0,0,1.28,1.33,3.86,3.86,0,0,0,1.93.47,3.5,3.5,0,0,0,2.12-.6,4.4,4.4,0,0,0,1.3-1.51l3.55,1.62a6.06,6.06,0,0,1-1.67,2A7.82,7.82,0,0,1,178,351,9.71,9.71,0,0,1,174.89,351.5Z" transform="translate(-105.05 -178.87)"/><path class="cls-1" d="M184.7,351.21,188.37,335h3.77l-.76,5.1-.29-.42a9.09,9.09,0,0,1,1.37-2.65,6.16,6.16,0,0,1,2-1.73,5.26,5.26,0,0,1,2.53-.62,5.84,5.84,0,0,1,.91.06,2.11,2.11,0,0,1,.64.23l-1.1,3.87a3,3,0,0,0-.73-.26,4.2,4.2,0,0,0-1-.1,4.51,4.51,0,0,0-2.06.5,4.65,4.65,0,0,0-1.71,1.55,7.51,7.51,0,0,0-1.11,2.72l-1.8,8Z" transform="translate(-105.05 -178.87)"/><path class="cls-1" d="M213.35,351.5a5.45,5.45,0,0,1-3-.83,5.63,5.63,0,0,1-2-2.32,8,8,0,0,1-.75-3.61,12.62,12.62,0,0,1,.57-3.8,11.21,11.21,0,0,1,1.6-3.23,7.85,7.85,0,0,1,2.5-2.24,6.44,6.44,0,0,1,3.25-.83,5.61,5.61,0,0,1,2.18.42,4.22,4.22,0,0,1,1.71,1.27,5,5,0,0,1,1,2.14l.79-3.51h4.34l-3.67,16.25H217.9l.54-3.06a6.21,6.21,0,0,1-2.12,2.44A5.3,5.3,0,0,1,213.35,351.5Zm1.74-3.38a2.89,2.89,0,0,0,1.67-.54,4.73,4.73,0,0,0,1.38-1.46,8,8,0,0,0,.92-2.08,8.62,8.62,0,0,0,.33-2.39,4.52,4.52,0,0,0-.38-1.91,2.79,2.79,0,0,0-2.66-1.69,3.37,3.37,0,0,0-1.86.53,4.77,4.77,0,0,0-1.41,1.45,7.49,7.49,0,0,0-.91,2,8.43,8.43,0,0,0-.31,2.29,5.08,5.08,0,0,0,.36,2,2.73,2.73,0,0,0,1.08,1.3A3.2,3.2,0,0,0,215.09,348.12Z" transform="translate(-105.05 -178.87)"/><path class="cls-1" d="M226.23,351.21,229.9,335h3.83l-.73,4.62-.32-.36a6.13,6.13,0,0,1,2.35-3.41,6.48,6.48,0,0,1,3.8-1.17,5.28,5.28,0,0,1,2.94.78,4.11,4.11,0,0,1,1.68,2.22,6.8,6.8,0,0,1,0,3.49l-2.28,10.08h-4.34l2.19-9.65a3.07,3.07,0,0,0-.3-2.5,2.34,2.34,0,0,0-2-.91,3.5,3.5,0,0,0-1.9.5,4.19,4.19,0,0,0-1.4,1.46,8.69,8.69,0,0,0-.91,2.42l-1.94,8.68Z" transform="translate(-105.05 -178.87)"/><path class="cls-1" d="M252,351.5a5.4,5.4,0,0,1-3-.83,5.63,5.63,0,0,1-2-2.32,8,8,0,0,1-.75-3.61,12.62,12.62,0,0,1,.57-3.8,11,11,0,0,1,1.6-3.23,7.85,7.85,0,0,1,2.5-2.24,6.42,6.42,0,0,1,3.25-.83,5.64,5.64,0,0,1,2.18.42,4.36,4.36,0,0,1,1.71,1.27,5,5,0,0,1,1,2.14l2.37-10.62h4.34l-5.25,23.36h-3.93l.54-3.06a6.21,6.21,0,0,1-2.12,2.44A5.31,5.31,0,0,1,252,351.5Zm1.71-3.38a3,3,0,0,0,1.71-.54,4.73,4.73,0,0,0,1.38-1.46,8.36,8.36,0,0,0,.92-2.08,8.62,8.62,0,0,0,.33-2.39,4.52,4.52,0,0,0-.38-1.91,2.79,2.79,0,0,0-2.66-1.69,3.4,3.4,0,0,0-1.87.53,4.77,4.77,0,0,0-1.41,1.45,7.47,7.47,0,0,0-.9,2,8.44,8.44,0,0,0-.32,2.29,5.08,5.08,0,0,0,.37,2,2.73,2.73,0,0,0,1.08,1.3A3.13,3.13,0,0,0,253.7,348.12Z" transform="translate(-105.05 -178.87)"/><path class="cls-1" d="M296.37,329.77l-12.25,21.44H279l-2.53-21.44h4.24L282,343.34l.25,4.23,2-4.19,7.6-13.61Z" transform="translate(-105.05 -178.87)"/><path class="cls-1" d="M301.24,351.5a8.12,8.12,0,0,1-4-.94,6.78,6.78,0,0,1-2.63-2.6,7.64,7.64,0,0,1-.93-3.8,10.78,10.78,0,0,1,1.05-4.81,8.2,8.2,0,0,1,3-3.41,8.47,8.47,0,0,1,4.72-1.27,7.37,7.37,0,0,1,3.72.88,5.78,5.78,0,0,1,2.34,2.5,8.55,8.55,0,0,1,.81,3.86,11.67,11.67,0,0,1-.07,1.32,6.82,6.82,0,0,1-.25,1.32H296.37v-3.09h10l-1.36.91a4.33,4.33,0,0,0,.16-.76c0-.23,0-.45,0-.67a3.52,3.52,0,0,0-.35-1.64,2.41,2.41,0,0,0-1-1,3,3,0,0,0-1.52-.36,3.82,3.82,0,0,0-2.17.58,4.34,4.34,0,0,0-1.39,1.55,6.93,6.93,0,0,0-.74,2.09,11.56,11.56,0,0,0-.22,2.24,4.33,4.33,0,0,0,.46,2.07,3.28,3.28,0,0,0,1.28,1.33,3.86,3.86,0,0,0,1.93.47,3.52,3.52,0,0,0,2.12-.6,4.4,4.4,0,0,0,1.3-1.51l3.54,1.62a5.91,5.91,0,0,1-1.66,2,7.93,7.93,0,0,1-2.47,1.28A9.82,9.82,0,0,1,301.24,351.5Z" transform="translate(-105.05 -178.87)"/><path class="cls-1" d="M311.06,351.21l5.25-23.36h4.34l-2.41,10.65-.5.56a6.32,6.32,0,0,1,1.26-2.29,6.15,6.15,0,0,1,2.07-1.56,6.36,6.36,0,0,1,2.71-.57,5,5,0,0,1,2.82.78,4.22,4.22,0,0,1,1.66,2.19,6.4,6.4,0,0,1,.08,3.4L326,351.21h-4.34l2.19-9.65a3.07,3.07,0,0,0-.3-2.5,2.35,2.35,0,0,0-2.05-.91,3.55,3.55,0,0,0-1.9.5,4.16,4.16,0,0,0-1.39,1.46,9,9,0,0,0-.92,2.42l-1.93,8.68Z" transform="translate(-105.05 -178.87)"/><path class="cls-1" d="M338.28,335l-3.67,16.25h-4.34L333.94,335Zm-1.36-2.34a2.74,2.74,0,0,1-1.81-.55,1.78,1.78,0,0,1-.57-1.62,2.72,2.72,0,0,1,.84-2,3,3,0,0,1,2-.63,2.76,2.76,0,0,1,1.83.55,1.7,1.7,0,0,1,.57,1.59,2.69,2.69,0,0,1-.85,2A3.07,3.07,0,0,1,336.92,332.62Z" transform="translate(-105.05 -178.87)"/><path class="cls-1" d="M347.61,351.5a8.21,8.21,0,0,1-4.08-1,6.54,6.54,0,0,1-2.61-2.63,7.81,7.81,0,0,1-.9-3.75,11,11,0,0,1,1-4.84,8.29,8.29,0,0,1,3-3.4,8.72,8.72,0,0,1,4.74-1.25,8.47,8.47,0,0,1,3.56.7,5.82,5.82,0,0,1,2.42,2,6,6,0,0,1,1,2.93l-4.24.78a3.42,3.42,0,0,0-.68-2.2,2.65,2.65,0,0,0-2.2-.86,3.36,3.36,0,0,0-1.82.52,4.93,4.93,0,0,0-1.41,1.43,6.86,6.86,0,0,0-.9,2.08,9.64,9.64,0,0,0-.3,2.41,4.62,4.62,0,0,0,.4,2,3,3,0,0,0,1.15,1.34,3.53,3.53,0,0,0,1.87.47,3.15,3.15,0,0,0,1.87-.62,3.42,3.42,0,0,0,1.23-1.72l4,1.36a6.72,6.72,0,0,1-2.77,3.14A8.5,8.5,0,0,1,347.61,351.5Z" transform="translate(-105.05 -178.87)"/><path class="cls-1" d="M361.73,351.47a4.11,4.11,0,0,1-3.64-1.52,4.89,4.89,0,0,1-.47-4l4.08-18.09H366L362,345.94a2,2,0,0,0,.14,1.72,1.81,1.81,0,0,0,1.51.56,5.35,5.35,0,0,0,.73,0,3,3,0,0,0,.53-.09l-.82,3a4.68,4.68,0,0,1-1,.27A7.8,7.8,0,0,1,361.73,351.47Z" transform="translate(-105.05 -178.87)"/><path class="cls-1" d="M374.9,351.5a8.09,8.09,0,0,1-4-.94,6.71,6.71,0,0,1-2.63-2.6,7.64,7.64,0,0,1-.93-3.8,10.78,10.78,0,0,1,1-4.81,8.29,8.29,0,0,1,3-3.41,8.44,8.44,0,0,1,4.71-1.27,7.32,7.32,0,0,1,3.72.88,5.66,5.66,0,0,1,2.34,2.5,8.55,8.55,0,0,1,.81,3.86q0,.66-.06,1.32a6.85,6.85,0,0,1-.26,1.32H370v-3.09h10l-1.36.91a4.22,4.22,0,0,0,.15-.76c0-.23,0-.45,0-.67a3.52,3.52,0,0,0-.34-1.64,2.47,2.47,0,0,0-1-1,3.05,3.05,0,0,0-1.52-.36,3.8,3.8,0,0,0-2.17.58,4.25,4.25,0,0,0-1.39,1.55,7.23,7.23,0,0,0-.75,2.09,11.56,11.56,0,0,0-.22,2.24,4.33,4.33,0,0,0,.46,2.07,3.28,3.28,0,0,0,1.28,1.33,3.86,3.86,0,0,0,1.93.47,3.5,3.5,0,0,0,2.12-.6,4.4,4.4,0,0,0,1.3-1.51l3.55,1.62a6.06,6.06,0,0,1-1.67,2A7.82,7.82,0,0,1,378,351,9.75,9.75,0,0,1,374.9,351.5Z" transform="translate(-105.05 -178.87)"/><path class="cls-1" d="M115.08,390.51a13,13,0,0,1-4.21-.65,10,10,0,0,1-3.4-1.9,9.71,9.71,0,0,1-2.42-3.17l2.94-2.5a7.49,7.49,0,0,0,1.79,2.59,7.4,7.4,0,0,0,2.52,1.51,8.66,8.66,0,0,0,2.85.48,4.5,4.5,0,0,0,2-.37,2.57,2.57,0,0,0,1.54-2.35,1.77,1.77,0,0,0-.59-1.4,4.67,4.67,0,0,0-1.75-.88l-3.23-1a10.18,10.18,0,0,1-2.63-1.26,5.85,5.85,0,0,1-1.79-1.92,5.11,5.11,0,0,1-.65-2.57,6,6,0,0,1,1-3.55,6.77,6.77,0,0,1,2.86-2.34,10.17,10.17,0,0,1,4.23-.83,10.84,10.84,0,0,1,5.4,1.23A8.91,8.91,0,0,1,125,373.2l-3.07,2.43a5.35,5.35,0,0,0-3.51-3.24,8.06,8.06,0,0,0-2.31-.33,5.13,5.13,0,0,0-2,.33,2.37,2.37,0,0,0-1.17.91,2.32,2.32,0,0,0-.38,1.29,2,2,0,0,0,.7,1.5,5,5,0,0,0,1.83,1l3.36,1a8.15,8.15,0,0,1,3.56,2.08,4.76,4.76,0,0,1,1.19,3.34,6.3,6.3,0,0,1-1.1,3.71,6.87,6.87,0,0,1-2.94,2.38A9.79,9.79,0,0,1,115.08,390.51Z" transform="translate(-105.05 -178.87)"/><path class="cls-1" d="M126.29,377.26l.76-3.32H139l-.76,3.32Zm6.3,13.22a6.35,6.35,0,0,1-3-.68,3.77,3.77,0,0,1-1.78-2,5.73,5.73,0,0,1-.09-3.22l3.16-14.16,4.66-1.3L132,384.57a2,2,0,0,0,.35,2,2.54,2.54,0,0,0,1.81.63,4.44,4.44,0,0,0,1.26-.16,3.71,3.71,0,0,0,.92-.43l0,3a6.11,6.11,0,0,1-1.76.65A9.45,9.45,0,0,1,132.59,390.48Z" transform="translate(-105.05 -178.87)"/><path class="cls-1" d="M145.4,390.48a5.42,5.42,0,0,1-3-.83,5.63,5.63,0,0,1-2-2.32,8,8,0,0,1-.75-3.61,12.62,12.62,0,0,1,.57-3.8,11.21,11.21,0,0,1,1.6-3.23,7.85,7.85,0,0,1,2.5-2.24,6.55,6.55,0,0,1,3.25-.83,5.61,5.61,0,0,1,2.18.42,4.32,4.32,0,0,1,1.71,1.27,5,5,0,0,1,1,2.14l.79-3.51h4.34l-3.67,16.25H150l.54-3.06a6.21,6.21,0,0,1-2.12,2.44A5.23,5.23,0,0,1,145.4,390.48Zm1.75-3.38a3,3,0,0,0,1.67-.53,4.89,4.89,0,0,0,1.38-1.47,7.87,7.87,0,0,0,.92-2.08,8.55,8.55,0,0,0,.33-2.38,4.53,4.53,0,0,0-.38-1.92,2.79,2.79,0,0,0-2.66-1.69,3.33,3.33,0,0,0-1.87.54,4.82,4.82,0,0,0-1.4,1.44,7.63,7.63,0,0,0-.91,2,8.43,8.43,0,0,0-.31,2.29,5.17,5.17,0,0,0,.36,2,2.83,2.83,0,0,0,1.08,1.3A3.28,3.28,0,0,0,147.15,387.1Z" transform="translate(-105.05 -178.87)"/><path class="cls-1" d="M158.29,390.19,162,373.94h3.83l-.73,4.62-.32-.36a6.16,6.16,0,0,1,2.35-3.41,6.45,6.45,0,0,1,3.79-1.17,5.32,5.32,0,0,1,3,.78,4.11,4.11,0,0,1,1.68,2.22,6.83,6.83,0,0,1,0,3.5l-2.28,10.07h-4.34l2.19-9.65a3.07,3.07,0,0,0-.3-2.5,2.35,2.35,0,0,0-2.05-.91,3.64,3.64,0,0,0-1.9.5,4.34,4.34,0,0,0-1.39,1.46,9,9,0,0,0-.92,2.42l-1.93,8.68Z" transform="translate(-105.05 -178.87)"/><path class="cls-1" d="M184.05,390.48a5.4,5.4,0,0,1-3-.83,5.63,5.63,0,0,1-2-2.32,8,8,0,0,1-.75-3.61,12.62,12.62,0,0,1,.57-3.8,11,11,0,0,1,1.6-3.23,7.75,7.75,0,0,1,2.5-2.24,6.51,6.51,0,0,1,3.24-.83,5.69,5.69,0,0,1,2.19.42,4.46,4.46,0,0,1,1.71,1.27,5,5,0,0,1,1,2.14l2.37-10.62h4.34l-5.25,23.36h-3.93l.54-3.06a6.29,6.29,0,0,1-2.12,2.44A5.23,5.23,0,0,1,184.05,390.48Zm1.71-3.38a3.05,3.05,0,0,0,1.71-.53,4.89,4.89,0,0,0,1.38-1.47,8.2,8.2,0,0,0,.92-2.08,8.55,8.55,0,0,0,.33-2.38,4.53,4.53,0,0,0-.38-1.92,3,3,0,0,0-1.06-1.25,2.93,2.93,0,0,0-1.6-.44,3.33,3.33,0,0,0-1.87.54,4.73,4.73,0,0,0-1.41,1.44,7.6,7.6,0,0,0-.9,2,8.44,8.44,0,0,0-.32,2.29,5.17,5.17,0,0,0,.37,2,2.87,2.87,0,0,0,1.07,1.3A3.24,3.24,0,0,0,185.76,387.1Z" transform="translate(-105.05 -178.87)"/><path class="cls-1" d="M203.58,390.48a5.4,5.4,0,0,1-3-.83,5.72,5.72,0,0,1-2.05-2.32,8.12,8.12,0,0,1-.74-3.61,12.62,12.62,0,0,1,.57-3.8,11,11,0,0,1,1.6-3.23,7.75,7.75,0,0,1,2.5-2.24,6.51,6.51,0,0,1,3.24-.83,5.69,5.69,0,0,1,2.19.42,4.46,4.46,0,0,1,1.71,1.27,5,5,0,0,1,1,2.14l.79-3.51h4.34l-3.68,16.25h-3.92l.54-3.06a6.29,6.29,0,0,1-2.12,2.44A5.23,5.23,0,0,1,203.58,390.48Zm1.74-3.38a3,3,0,0,0,1.68-.53,4.89,4.89,0,0,0,1.38-1.47,7.85,7.85,0,0,0,.91-2.08,8.2,8.2,0,0,0,.34-2.38,4.53,4.53,0,0,0-.38-1.92,3,3,0,0,0-1.06-1.25,2.93,2.93,0,0,0-1.6-.44,3.33,3.33,0,0,0-1.87.54,4.73,4.73,0,0,0-1.41,1.44,7.6,7.6,0,0,0-.9,2,8.44,8.44,0,0,0-.32,2.29,5,5,0,0,0,.37,2,2.87,2.87,0,0,0,1.07,1.3A3.3,3.3,0,0,0,205.32,387.1Z" transform="translate(-105.05 -178.87)"/><path class="cls-1" d="M216.46,390.19l3.67-16.25h3.77l-.76,5.1-.28-.42a8.83,8.83,0,0,1,1.36-2.65,6.16,6.16,0,0,1,2-1.73,5.39,5.39,0,0,1,2.54-.62,5.71,5.71,0,0,1,.9.06,2.18,2.18,0,0,1,.65.23l-1.11,3.87a2.84,2.84,0,0,0-.73-.26,4.15,4.15,0,0,0-1-.1,4.54,4.54,0,0,0-2.06.5,4.81,4.81,0,0,0-1.71,1.55,7.85,7.85,0,0,0-1.11,2.73l-1.8,8Z" transform="translate(-105.05 -178.87)"/><path class="cls-1" d="M235.77,390.48a5.4,5.4,0,0,1-3-.83,5.72,5.72,0,0,1-2.05-2.32,8.12,8.12,0,0,1-.74-3.61,12.62,12.62,0,0,1,.57-3.8,11,11,0,0,1,1.6-3.23,7.75,7.75,0,0,1,2.5-2.24,6.51,6.51,0,0,1,3.24-.83,5.69,5.69,0,0,1,2.19.42,4.46,4.46,0,0,1,1.71,1.27,5,5,0,0,1,1,2.14l2.37-10.62h4.34l-5.26,23.36h-3.92l.54-3.06a6.29,6.29,0,0,1-2.12,2.44A5.23,5.23,0,0,1,235.77,390.48Zm1.71-3.38a3.05,3.05,0,0,0,1.71-.53,4.89,4.89,0,0,0,1.38-1.47,7.85,7.85,0,0,0,.91-2.08,8.2,8.2,0,0,0,.34-2.38,4.53,4.53,0,0,0-.38-1.92,3,3,0,0,0-1.06-1.25,2.93,2.93,0,0,0-1.6-.44,3.33,3.33,0,0,0-1.87.54A4.73,4.73,0,0,0,235.5,379a7.6,7.6,0,0,0-.9,2,8.44,8.44,0,0,0-.32,2.29,5,5,0,0,0,.37,2,2.87,2.87,0,0,0,1.07,1.3A3.24,3.24,0,0,0,237.48,387.1Z" transform="translate(-105.05 -178.87)"/><path class="cls-1" d="M256.31,390.54A10.21,10.21,0,0,1,253,390a8.46,8.46,0,0,1-2.75-1.51,7.41,7.41,0,0,1-1.9-2.32l2.69-2.18a6,6,0,0,0,2,2.39,5.07,5.07,0,0,0,2.95.9,4,4,0,0,0,1.93-.39,1.27,1.27,0,0,0,.7-1.17,1.32,1.32,0,0,0-.42-1,2.72,2.72,0,0,0-1.2-.64l-2.25-.68a6.77,6.77,0,0,1-3.22-1.85,4.06,4.06,0,0,1-1-2.76,4.68,4.68,0,0,1,.81-2.73,5.27,5.27,0,0,1,2.28-1.82,8.58,8.58,0,0,1,3.46-.65,9.43,9.43,0,0,1,4.25.91,6.45,6.45,0,0,1,2.81,2.63l-2.62,2.31a4.52,4.52,0,0,0-1.05-1.37,5,5,0,0,0-1.5-.92,4.75,4.75,0,0,0-1.82-.34,3.91,3.91,0,0,0-2,.4,1.29,1.29,0,0,0-.68,1.16,1,1,0,0,0,.58,1,7.15,7.15,0,0,0,1.29.55l3.07,1a5.13,5.13,0,0,1,2.56,1.6,3.94,3.94,0,0,1,.89,2.55,5,5,0,0,1-3.11,4.83A8.51,8.51,0,0,1,256.31,390.54Z" transform="translate(-105.05 -178.87)"/><path class="cls-1" d="M271.85,390.19l12.35-21.44h5.32l2.59,21.44h-4.18l-.6-5.43h-7.85l-3,5.43Zm9.4-8.74h5.86l-.92-9Z" transform="translate(-105.05 -178.87)"/><path class="cls-1" d="M300.94,397.17a9.34,9.34,0,0,1-2.66-.37,7.19,7.19,0,0,1-2.24-1.09,5.43,5.43,0,0,1-1.57-1.77,5.74,5.74,0,0,1-.68-2.45l4.34-.72a4.46,4.46,0,0,0,.87,2.44,3,3,0,0,0,2.42.88,3.9,3.9,0,0,0,1.72-.39,3.73,3.73,0,0,0,1.43-1.3,7.25,7.25,0,0,0,1-2.54l1-4.64.34-.13a6.23,6.23,0,0,1-2,3.46,5.22,5.22,0,0,1-3.51,1.25,5.6,5.6,0,0,1-5.13-3.17,7.56,7.56,0,0,1-.76-3.46,11.71,11.71,0,0,1,.57-3.7,9.92,9.92,0,0,1,1.61-3,7.68,7.68,0,0,1,2.49-2.06,6.78,6.78,0,0,1,3.18-.75,5.31,5.31,0,0,1,2.49.58,4.58,4.58,0,0,1,1.81,1.74,5.36,5.36,0,0,1,.7,2.84l-.57.62,1.24-5.46h4.33l-3.57,15.73a11.72,11.72,0,0,1-1.86,4.4,7.07,7.07,0,0,1-3,2.37A10.4,10.4,0,0,1,300.94,397.17Zm2.22-10.72a3.11,3.11,0,0,0,2.12-.81,5.68,5.68,0,0,0,1.46-2.14,7.87,7.87,0,0,0,.53-2.9,4.3,4.3,0,0,0-.38-1.9,2.86,2.86,0,0,0-1.07-1.23,3.08,3.08,0,0,0-1.65-.44,3.49,3.49,0,0,0-2.29.8,5.25,5.25,0,0,0-1.51,2.09,7.32,7.32,0,0,0-.54,2.83,4,4,0,0,0,.86,2.66A3,3,0,0,0,303.16,386.45Z" transform="translate(-105.05 -178.87)"/><path class="cls-1" d="M322.59,390.48a8,8,0,0,1-4-.94,6.78,6.78,0,0,1-2.63-2.6,7.64,7.64,0,0,1-.93-3.8,10.92,10.92,0,0,1,1-4.81,8.29,8.29,0,0,1,3-3.41,8.47,8.47,0,0,1,4.72-1.27,7.37,7.37,0,0,1,3.72.88,5.78,5.78,0,0,1,2.34,2.5,8.57,8.57,0,0,1,.81,3.87c0,.43,0,.87-.07,1.31a6.68,6.68,0,0,1-.25,1.32H317.72v-3.09h10l-1.36.91a4.15,4.15,0,0,0,.16-.76c0-.23,0-.45,0-.67a3.55,3.55,0,0,0-.35-1.64,2.47,2.47,0,0,0-1-1,3,3,0,0,0-1.52-.36,3.8,3.8,0,0,0-2.17.59,4.3,4.3,0,0,0-1.39,1.54,7,7,0,0,0-.74,2.09,11.61,11.61,0,0,0-.23,2.25,4.41,4.41,0,0,0,.46,2.06,3.31,3.31,0,0,0,1.29,1.33,3.83,3.83,0,0,0,1.93.47,3.52,3.52,0,0,0,2.12-.6,4.18,4.18,0,0,0,1.29-1.51l3.55,1.62a6,6,0,0,1-1.66,2,7.93,7.93,0,0,1-2.47,1.28A9.82,9.82,0,0,1,322.59,390.48Z" transform="translate(-105.05 -178.87)"/><path class="cls-1" d="M332.4,390.19l3.68-16.25h3.83l-.73,4.62-.32-.36a6.1,6.1,0,0,1,2.34-3.41,6.5,6.5,0,0,1,3.8-1.17,5.34,5.34,0,0,1,2.95.78,4,4,0,0,1,1.67,2.22,6.72,6.72,0,0,1,0,3.5l-2.28,10.07H343l2.18-9.65a3,3,0,0,0-.3-2.5,2.32,2.32,0,0,0-2-.91,3.62,3.62,0,0,0-1.9.5,4.25,4.25,0,0,0-1.39,1.46,8.68,8.68,0,0,0-.92,2.42l-1.93,8.68Z" transform="translate(-105.05 -178.87)"/><path class="cls-1" d="M360.1,390.48a8.21,8.21,0,0,1-4.08-1,6.48,6.48,0,0,1-2.61-2.63,7.71,7.71,0,0,1-.91-3.75,10.85,10.85,0,0,1,1.05-4.84,8.22,8.22,0,0,1,3-3.4,8.71,8.71,0,0,1,4.73-1.25,8.6,8.6,0,0,1,3.56.7,5.87,5.87,0,0,1,2.43,2,6,6,0,0,1,1,2.92l-4.24.78a3.43,3.43,0,0,0-.68-2.19,2.63,2.63,0,0,0-2.2-.86,3.25,3.25,0,0,0-1.82.52,4.77,4.77,0,0,0-1.41,1.42,6.86,6.86,0,0,0-.9,2.08,9.64,9.64,0,0,0-.3,2.41,4.82,4.82,0,0,0,.39,2,3.07,3.07,0,0,0,1.16,1.33,3.51,3.51,0,0,0,1.87.47,3.12,3.12,0,0,0,1.86-.62,3.45,3.45,0,0,0,1.24-1.72l3.95,1.36a6.67,6.67,0,0,1-2.77,3.14A8.35,8.35,0,0,1,360.1,390.48Z" transform="translate(-105.05 -178.87)"/><path class="cls-1" d="M369.34,397.17a8.25,8.25,0,0,1-2.37-.31,4.7,4.7,0,0,1-1.65-.79l1.3-3.28a3.73,3.73,0,0,0,2.6,1,3.12,3.12,0,0,0,1.64-.44,3.87,3.87,0,0,0,1.3-1.38l.95-1.59-2.79-16.41h4.37l.83,8.94.34,4,1.93-3.83,4.72-9.1h4.65L376.34,392.2a14,14,0,0,1-2.09,2.89,6.66,6.66,0,0,1-2.28,1.59A6.84,6.84,0,0,1,369.34,397.17Z" transform="translate(-105.05 -178.87)"/><path class="cls-1" d="M111.25,429.17l12.35-21.44h5.32l2.59,21.44h-4.18l-.6-5.43h-7.85l-3,5.43Zm9.4-8.74h5.86l-.92-9Z" transform="translate(-105.05 -178.87)"/><path class="cls-1" d="M132.52,436l5.19-23.06h3.9l-.89,5h-.35a7.68,7.68,0,0,1,1.25-2.81,5.83,5.83,0,0,1,2.16-1.82,6.09,6.09,0,0,1,2.73-.64,5.06,5.06,0,0,1,2.8.78,5.24,5.24,0,0,1,1.92,2.28,8.62,8.62,0,0,1,.7,3.64,13.29,13.29,0,0,1-.56,3.83,10.44,10.44,0,0,1-1.6,3.26,8.17,8.17,0,0,1-2.45,2.25,6.06,6.06,0,0,1-3.12.82,5.81,5.81,0,0,1-2.53-.55,4.39,4.39,0,0,1-1.88-1.67,5.41,5.41,0,0,1-.78-2.78l.57-.78L136.86,436Zm10.73-9.91a3.16,3.16,0,0,0,1.76-.53,4.83,4.83,0,0,0,1.39-1.45,7.67,7.67,0,0,0,.92-2.05,8.15,8.15,0,0,0,.33-2.3,4.75,4.75,0,0,0-.38-2,2.75,2.75,0,0,0-1.07-1.25,3.45,3.45,0,0,0-3.47.1,4.6,4.6,0,0,0-1.39,1.42,7.4,7.4,0,0,0-.9,2.08,9,9,0,0,0-.32,2.44,4,4,0,0,0,.79,2.6A2.84,2.84,0,0,0,143.25,426.08Z" transform="translate(-105.05 -178.87)"/><path class="cls-1" d="M152.05,436l5.19-23.06h3.9l-.89,5h-.35a7.68,7.68,0,0,1,1.25-2.81,5.87,5.87,0,0,1,2.15-1.82,6.16,6.16,0,0,1,2.74-.64,5.06,5.06,0,0,1,2.8.78,5.24,5.24,0,0,1,1.92,2.28,8.62,8.62,0,0,1,.7,3.64,13.29,13.29,0,0,1-.56,3.83,10.44,10.44,0,0,1-1.6,3.26,8.17,8.17,0,0,1-2.45,2.25,6.06,6.06,0,0,1-3.12.82,5.81,5.81,0,0,1-2.53-.55,4.39,4.39,0,0,1-1.88-1.67,5.41,5.41,0,0,1-.78-2.78l.57-.78L156.39,436Zm10.73-9.91a3.16,3.16,0,0,0,1.76-.53,4.83,4.83,0,0,0,1.39-1.45,7.67,7.67,0,0,0,.92-2.05,8.15,8.15,0,0,0,.33-2.3,4.75,4.75,0,0,0-.38-2,2.75,2.75,0,0,0-1.07-1.25,3.45,3.45,0,0,0-3.47.1,4.6,4.6,0,0,0-1.39,1.42,7.71,7.71,0,0,0-.91,2.08,9.38,9.38,0,0,0-.31,2.44,4,4,0,0,0,.79,2.6A2.84,2.84,0,0,0,162.78,426.08Z" transform="translate(-105.05 -178.87)"/><path class="cls-1" d="M173.1,429.17l3.67-16.24h3.77l-.76,5.1-.29-.43a9,9,0,0,1,1.37-2.64,6.08,6.08,0,0,1,2-1.74,5.38,5.38,0,0,1,2.53-.62,4.74,4.74,0,0,1,.91.07,2.1,2.1,0,0,1,.64.22l-1.1,3.87a3.47,3.47,0,0,0-.73-.26,4.78,4.78,0,0,0-1-.1,4.39,4.39,0,0,0-2.06.51,4.62,4.62,0,0,0-1.71,1.54,7.49,7.49,0,0,0-1.11,2.73l-1.8,8Z" transform="translate(-105.05 -178.87)"/><path class="cls-1" d="M194.28,429.46a8.05,8.05,0,0,1-4-1,6.6,6.6,0,0,1-2.61-2.63,7.66,7.66,0,0,1-.92-3.75,10.72,10.72,0,0,1,1.06-4.84,8.13,8.13,0,0,1,7.65-4.65,8.1,8.1,0,0,1,4.08,1,6.57,6.57,0,0,1,2.58,2.62,7.68,7.68,0,0,1,.9,3.73,11,11,0,0,1-1,4.83,8.14,8.14,0,0,1-7.66,4.69Zm.09-3.28a3,3,0,0,0,1.71-.52,4.92,4.92,0,0,0,1.39-1.44,7.4,7.4,0,0,0,.92-2.1,9.2,9.2,0,0,0,.32-2.4,4.91,4.91,0,0,0-.38-2,3.12,3.12,0,0,0-1.13-1.33,3.38,3.38,0,0,0-1.88-.48,3.07,3.07,0,0,0-1.72.52,4.63,4.63,0,0,0-1.4,1.42,7.4,7.4,0,0,0-.9,2.08,9.38,9.38,0,0,0-.32,2.44,5,5,0,0,0,.38,1.95,3.06,3.06,0,0,0,1.14,1.36A3.36,3.36,0,0,0,194.37,426.18Z" transform="translate(-105.05 -178.87)"/><path class="cls-1" d="M217.32,412.93h4.84l-9.46,16.24h-5l-2.25-16.24h4.27l1.23,14.74-.91-.16Z" transform="translate(-105.05 -178.87)"/><path class="cls-1" d="M229.66,429.46a8,8,0,0,1-4-.94,6.71,6.71,0,0,1-2.63-2.6,7.61,7.61,0,0,1-.93-3.8,10.92,10.92,0,0,1,1-4.81,8.36,8.36,0,0,1,3-3.41,8.55,8.55,0,0,1,4.72-1.27,7.47,7.47,0,0,1,3.72.88A5.83,5.83,0,0,1,237,416a8.6,8.6,0,0,1,.81,3.87,11.62,11.62,0,0,1-.07,1.31,6.55,6.55,0,0,1-.25,1.32H224.79v-3.09h10l-1.36.91a4.15,4.15,0,0,0,.16-.76c0-.23,0-.45,0-.67a3.55,3.55,0,0,0-.35-1.64,2.47,2.47,0,0,0-1-1,3,3,0,0,0-1.52-.36,3.82,3.82,0,0,0-2.17.59,4.3,4.3,0,0,0-1.39,1.54,7,7,0,0,0-.74,2.1,11.41,11.41,0,0,0-.22,2.24,4.38,4.38,0,0,0,.45,2.06,3.31,3.31,0,0,0,1.29,1.33,3.73,3.73,0,0,0,1.93.47,3.52,3.52,0,0,0,2.12-.6,4.18,4.18,0,0,0,1.29-1.51l3.55,1.63a6,6,0,0,1-1.66,2,8,8,0,0,1-2.47,1.29A10.12,10.12,0,0,1,229.66,429.46Z" transform="translate(-105.05 -178.87)"/><path class="cls-1" d="M246,429.46a5.37,5.37,0,0,1-3-.83,5.71,5.71,0,0,1-2-2.32,8,8,0,0,1-.74-3.6,12.69,12.69,0,0,1,.57-3.81,11.19,11.19,0,0,1,1.59-3.23,7.78,7.78,0,0,1,2.51-2.24,6.51,6.51,0,0,1,3.24-.83,5.61,5.61,0,0,1,2.18.42,4.41,4.41,0,0,1,1.71,1.27,4.91,4.91,0,0,1,1,2.15l2.38-10.63h4.33l-5.25,23.36h-3.93l.54-3.05a6.1,6.1,0,0,1-2.12,2.43A5.22,5.22,0,0,1,246,429.46Zm1.71-3.38a3.05,3.05,0,0,0,1.71-.53,5.07,5.07,0,0,0,1.37-1.46,8,8,0,0,0,.92-2.08,8.67,8.67,0,0,0,.33-2.39,4.39,4.39,0,0,0-.38-1.92,2.84,2.84,0,0,0-1.06-1.25A2.88,2.88,0,0,0,249,416a3.3,3.3,0,0,0-1.86.54,4.85,4.85,0,0,0-1.41,1.44,7.6,7.6,0,0,0-.9,2,8.12,8.12,0,0,0-.32,2.29,5.14,5.14,0,0,0,.36,2,2.84,2.84,0,0,0,1.08,1.3A3.22,3.22,0,0,0,247.74,426.08Z" transform="translate(-105.05 -178.87)"/><path class="cls-1" d="M268.94,429.17l4.85-21.44h6.9a9.63,9.63,0,0,1,4.82,1.12,7.52,7.52,0,0,1,3,3.09,9.64,9.64,0,0,1,1,4.56,15.29,15.29,0,0,1-.81,5.08,11.68,11.68,0,0,1-2.34,4,10.26,10.26,0,0,1-3.69,2.63,12.15,12.15,0,0,1-4.87.93Zm5.19-3.57h3.74a6.26,6.26,0,0,0,3.09-.75,7,7,0,0,0,2.26-2,9.62,9.62,0,0,0,1.39-2.88,11.46,11.46,0,0,0,.48-3.3,6.74,6.74,0,0,0-.54-2.79,4.27,4.27,0,0,0-1.62-1.89,5.07,5.07,0,0,0-2.75-.68h-2.82Z" transform="translate(-105.05 -178.87)"/><path class="cls-1" d="M290.78,429.17l3.67-16.24h3.77l-.76,5.1-.28-.43a8.78,8.78,0,0,1,1.36-2.64,6.08,6.08,0,0,1,2-1.74,5.39,5.39,0,0,1,2.54-.62,4.7,4.7,0,0,1,.9.07,2.17,2.17,0,0,1,.65.22l-1.11,3.87a3.47,3.47,0,0,0-.73-.26,4.71,4.71,0,0,0-1-.1,4.39,4.39,0,0,0-2.06.51,4.78,4.78,0,0,0-1.71,1.54,7.85,7.85,0,0,0-1.11,2.73l-1.8,8Z" transform="translate(-105.05 -178.87)"/><path class="cls-1" d="M311.77,412.93l-3.67,16.24h-4.34l3.67-16.24Zm-1.36-2.34a2.81,2.81,0,0,1-1.81-.55,1.79,1.79,0,0,1-.57-1.63,2.74,2.74,0,0,1,.84-2,2.93,2.93,0,0,1,2-.64,2.86,2.86,0,0,1,1.84.55,1.76,1.76,0,0,1,.57,1.6,2.7,2.7,0,0,1-.86,2A3.07,3.07,0,0,1,310.41,410.59Z" transform="translate(-105.05 -178.87)"/><path class="cls-1" d="M325.88,412.93h4.85l-9.47,16.24h-5L314,412.93h4.28l1.23,14.74-.92-.16Z" transform="translate(-105.05 -178.87)"/><path class="cls-1" d="M337.28,412.93l-3.67,16.24h-4.34l3.67-16.24Zm-1.36-2.34a2.81,2.81,0,0,1-1.81-.55,1.79,1.79,0,0,1-.57-1.63,2.74,2.74,0,0,1,.84-2,2.93,2.93,0,0,1,2-.64,2.86,2.86,0,0,1,1.84.55,1.76,1.76,0,0,1,.57,1.6,2.7,2.7,0,0,1-.86,2A3.05,3.05,0,0,1,335.92,410.59Z" transform="translate(-105.05 -178.87)"/><path class="cls-1" d="M338,429.17l3.67-16.24h3.83l-.73,4.61-.31-.36a6.1,6.1,0,0,1,2.34-3.41,6.48,6.48,0,0,1,3.8-1.17,5.28,5.28,0,0,1,2.94.78,4.09,4.09,0,0,1,1.68,2.23,6.79,6.79,0,0,1,0,3.49L353,429.17h-4.34l2.19-9.65a3.08,3.08,0,0,0-.3-2.5,2.34,2.34,0,0,0-2-.91,3.62,3.62,0,0,0-1.9.5,4.22,4.22,0,0,0-1.4,1.47,8.45,8.45,0,0,0-.91,2.42l-1.93,8.67Z" transform="translate(-105.05 -178.87)"/><path class="cls-1" d="M363.55,436.15a9.34,9.34,0,0,1-2.66-.37,7.35,7.35,0,0,1-2.25-1.09,5.31,5.31,0,0,1-1.56-1.77,5.74,5.74,0,0,1-.68-2.45l4.33-.72a4.59,4.59,0,0,0,.87,2.44,3,3,0,0,0,2.43.88,3.9,3.9,0,0,0,1.72-.39,3.7,3.7,0,0,0,1.42-1.3,7.05,7.05,0,0,0,1-2.54l1-4.64.35-.13a6.25,6.25,0,0,1-2,3.46,5.22,5.22,0,0,1-3.51,1.25,5.7,5.7,0,0,1-3-.83,5.63,5.63,0,0,1-2.1-2.34,7.53,7.53,0,0,1-.76-3.46,11.71,11.71,0,0,1,.57-3.7,9.92,9.92,0,0,1,1.61-3,7.68,7.68,0,0,1,2.49-2.06,6.78,6.78,0,0,1,3.18-.75,5.31,5.31,0,0,1,2.48.59,4.58,4.58,0,0,1,1.82,1.73,5.38,5.38,0,0,1,.7,2.85l-.57.61,1.23-5.45H376l-3.58,15.72a11.72,11.72,0,0,1-1.85,4.4,7,7,0,0,1-3,2.37A10.4,10.4,0,0,1,363.55,436.15Zm2.22-10.72a3.13,3.13,0,0,0,2.12-.81,5.59,5.59,0,0,0,1.45-2.14,7.62,7.62,0,0,0,.54-2.89,4.41,4.41,0,0,0-.38-1.9,2.85,2.85,0,0,0-1.08-1.24,3,3,0,0,0-1.64-.44,3.52,3.52,0,0,0-2.3.8,5.33,5.33,0,0,0-1.5,2.09,7.32,7.32,0,0,0-.54,2.83,4,4,0,0,0,.86,2.66A3,3,0,0,0,365.77,425.43Z" transform="translate(-105.05 -178.87)"/><path class="cls-1" d="M178,446.71l-4.85,21.44H168.8l4.84-21.44Z" transform="translate(-105.05 -178.87)"/><path class="cls-1" d="M177.94,468.15l3.68-16.24h3.83l-.73,4.61-.32-.35a6.09,6.09,0,0,1,2.34-3.42,6.5,6.5,0,0,1,3.8-1.17,5.34,5.34,0,0,1,3,.78,4.07,4.07,0,0,1,1.67,2.23,6.58,6.58,0,0,1,0,3.49l-2.27,10.07h-4.34l2.18-9.65a3,3,0,0,0-.3-2.5,2.34,2.34,0,0,0-2-.91,3.53,3.53,0,0,0-1.9.51,4.08,4.08,0,0,0-1.39,1.46,8.56,8.56,0,0,0-.92,2.42l-1.93,8.67Z" transform="translate(-105.05 -178.87)"/><path class="cls-1" d="M204.72,468.51a10.17,10.17,0,0,1-3.29-.52,8.65,8.65,0,0,1-2.75-1.51,7.38,7.38,0,0,1-1.9-2.32l2.69-2.18a6.05,6.05,0,0,0,2,2.39,5.13,5.13,0,0,0,2.95.89,4,4,0,0,0,1.93-.39,1.26,1.26,0,0,0,.69-1.17,1.31,1.31,0,0,0-.41-1,2.71,2.71,0,0,0-1.2-.63l-2.25-.69a6.81,6.81,0,0,1-3.23-1.85,4.1,4.1,0,0,1-1-2.76,4.68,4.68,0,0,1,.81-2.73,5.35,5.35,0,0,1,2.28-1.82,8.54,8.54,0,0,1,3.46-.65,9.48,9.48,0,0,1,4.24.91,6.44,6.44,0,0,1,2.82,2.64l-2.63,2.3a4.29,4.29,0,0,0-1-1.36,5.25,5.25,0,0,0-1.5-.93,4.75,4.75,0,0,0-1.82-.34,3.9,3.9,0,0,0-2,.41,1.26,1.26,0,0,0-.68,1.15,1,1,0,0,0,.58,1,6.88,6.88,0,0,0,1.29.56l3.07,1a5.19,5.19,0,0,1,2.56,1.61,3.9,3.9,0,0,1,.89,2.55,5.18,5.18,0,0,1-.81,2.92,5.11,5.11,0,0,1-2.3,1.9A8.34,8.34,0,0,1,204.72,468.51Z" transform="translate(-105.05 -178.87)"/><path class="cls-1" d="M214.57,455.22l.76-3.31h11.9l-.76,3.31Zm6.29,13.22a6.22,6.22,0,0,1-3-.68,3.7,3.7,0,0,1-1.78-2,5.64,5.64,0,0,1-.09-3.22l3.16-14.16,4.66-1.3-3.52,15.43a2,2,0,0,0,.35,2,2.52,2.52,0,0,0,1.81.63,4.15,4.15,0,0,0,1.26-.16,4.09,4.09,0,0,0,.92-.42l0,3a6.42,6.42,0,0,1-1.76.65A9.49,9.49,0,0,1,220.86,468.44Z" transform="translate(-105.05 -178.87)"/><path class="cls-1" d="M226.85,468.15l3.67-16.24h3.77l-.76,5.1-.29-.42a9.07,9.07,0,0,1,1.36-2.65,6.11,6.11,0,0,1,2-1.74,5.35,5.35,0,0,1,2.53-.62,5.48,5.48,0,0,1,.9.07,1.93,1.93,0,0,1,.65.23l-1.11,3.86a3.37,3.37,0,0,0-.72-.26,4.88,4.88,0,0,0-1-.1,4.42,4.42,0,0,0-2.06.51,4.67,4.67,0,0,0-1.7,1.54,7.56,7.56,0,0,0-1.11,2.73l-1.81,8Z" transform="translate(-105.05 -178.87)"/><path class="cls-1" d="M245.84,468.44a5.39,5.39,0,0,1-2.93-.76,4.23,4.23,0,0,1-1.74-2.19,6.11,6.11,0,0,1-.08-3.45l2.28-10.13h4.34l-2.16,9.61a3,3,0,0,0,.3,2.54,2.45,2.45,0,0,0,2,.88,3.41,3.41,0,0,0,1.9-.51,4.07,4.07,0,0,0,1.35-1.46,8.31,8.31,0,0,0,.87-2.39l2-8.67h4.34l-3.67,16.24h-3.83l.73-4.61.28.36a6.13,6.13,0,0,1-2.28,3.39A6.2,6.2,0,0,1,245.84,468.44Z" transform="translate(-105.05 -178.87)"/><path class="cls-1" d="M267.65,468.44a8.22,8.22,0,0,1-4.09-.95,6.5,6.5,0,0,1-2.61-2.64,7.76,7.76,0,0,1-.9-3.75,11,11,0,0,1,1-4.84,8.15,8.15,0,0,1,3-3.39,8.6,8.6,0,0,1,4.73-1.25,8.44,8.44,0,0,1,3.56.7,5.82,5.82,0,0,1,2.42,2,6.08,6.08,0,0,1,1.05,2.92l-4.25.78a3.41,3.41,0,0,0-.68-2.19,2.63,2.63,0,0,0-2.2-.86,3.28,3.28,0,0,0-1.82.52,4.9,4.9,0,0,0-1.4,1.43,6.64,6.64,0,0,0-.91,2.08,9.62,9.62,0,0,0-.3,2.4,4.64,4.64,0,0,0,.4,2,3,3,0,0,0,1.15,1.33,3.44,3.44,0,0,0,1.87.47,3.12,3.12,0,0,0,1.87-.61,3.45,3.45,0,0,0,1.23-1.73l4,1.37a6.64,6.64,0,0,1-2.77,3.13A8.4,8.4,0,0,1,267.65,468.44Z" transform="translate(-105.05 -178.87)"/><path class="cls-1" d="M277.71,455.22l.76-3.31h11.9l-.76,3.31Zm6.3,13.22a6.26,6.26,0,0,1-3-.68,3.72,3.72,0,0,1-1.77-2,5.63,5.63,0,0,1-.1-3.22l3.17-14.16,4.65-1.3-3.51,15.43a2,2,0,0,0,.35,2,2.5,2.5,0,0,0,1.8.63,4.18,4.18,0,0,0,1.27-.16,4.54,4.54,0,0,0,.92-.42l0,3a6.36,6.36,0,0,1-1.75.65A9.63,9.63,0,0,1,284,468.44Z" transform="translate(-105.05 -178.87)"/><path class="cls-1" d="M298.7,468.44a8,8,0,0,1-4-.95,6.63,6.63,0,0,1-2.61-2.64,7.66,7.66,0,0,1-.92-3.75,10.72,10.72,0,0,1,1.06-4.84,8.14,8.14,0,0,1,7.64-4.64,8.11,8.11,0,0,1,4.09,1,6.54,6.54,0,0,1,2.58,2.61,7.72,7.72,0,0,1,.9,3.74,11,11,0,0,1-1,4.82,8.09,8.09,0,0,1-7.66,4.69Zm.09-3.28a3,3,0,0,0,1.71-.52,4.8,4.8,0,0,0,1.39-1.44,7.4,7.4,0,0,0,.92-2.1,9.2,9.2,0,0,0,.32-2.4,4.82,4.82,0,0,0-.38-2,3.09,3.09,0,0,0-1.13-1.34,3.38,3.38,0,0,0-1.88-.48,3.07,3.07,0,0,0-1.72.52,4.56,4.56,0,0,0-1.4,1.43,7.27,7.27,0,0,0-.9,2.08,9.31,9.31,0,0,0-.32,2.43,4.88,4.88,0,0,0,.38,1.95,3.08,3.08,0,0,0,1.14,1.37A3.44,3.44,0,0,0,298.79,465.16Z" transform="translate(-105.05 -178.87)"/><path class="cls-1" d="M309.11,468.15l3.67-16.24h3.77l-.76,5.1-.29-.42a9.07,9.07,0,0,1,1.36-2.65,6.11,6.11,0,0,1,2-1.74,5.35,5.35,0,0,1,2.53-.62,5.48,5.48,0,0,1,.9.07,1.86,1.86,0,0,1,.65.23l-1.1,3.86a3.68,3.68,0,0,0-.73-.26,4.81,4.81,0,0,0-1-.1,4.38,4.38,0,0,0-2.05.51,4.62,4.62,0,0,0-1.71,1.54,7.56,7.56,0,0,0-1.11,2.73l-1.8,8Z" transform="translate(-105.05 -178.87)"/><path class="cls-1" d="M212.41,513.34a19.44,19.44,0,0,1-2.88-5.65,21.58,21.58,0,0,1-1-6.6,20.85,20.85,0,0,1,2.83-10.51,20.14,20.14,0,0,1,7.8-7.55l1.62,2.24a18.8,18.8,0,0,0-4.62,4.44,18.4,18.4,0,0,0-2.8,5.6,21.71,21.71,0,0,0-.94,6.46,20.4,20.4,0,0,0,.65,5.17,17.38,17.38,0,0,0,1.82,4.45Z" transform="translate(-105.05 -178.87)"/><path class="cls-1" d="M228.9,507.46a9.91,9.91,0,0,1-4.68-1.09,8.22,8.22,0,0,1-3.31-3.15,9.69,9.69,0,0,1-1.22-5,16.11,16.11,0,0,1,.73-4.93,12.64,12.64,0,0,1,2.15-4.1,10.19,10.19,0,0,1,3.5-2.81,10.57,10.57,0,0,1,4.73-1,9.86,9.86,0,0,1,4,.75,7.13,7.13,0,0,1,2.87,2.22,8.73,8.73,0,0,1,1.58,3.66l-4.3,1.1a5.18,5.18,0,0,0-1.36-3.09,4.12,4.12,0,0,0-2.92-1,5,5,0,0,0-2.86.83,6.9,6.9,0,0,0-2,2.16,11,11,0,0,0-1.21,2.94,12.49,12.49,0,0,0-.42,3.16,6.54,6.54,0,0,0,.64,3,4.63,4.63,0,0,0,1.77,1.94,5,5,0,0,0,2.63.68,4.21,4.21,0,0,0,2.83-.88,6.92,6.92,0,0,0,1.72-2.31l4,1.66a11,11,0,0,1-3.46,3.8A9.49,9.49,0,0,1,228.9,507.46Z" transform="translate(-105.05 -178.87)"/><path class="cls-1" d="M246,507.43a5.45,5.45,0,0,1-3-.83,5.74,5.74,0,0,1-2-2.33,7.92,7.92,0,0,1-.74-3.6,12.62,12.62,0,0,1,.57-3.8,11.19,11.19,0,0,1,1.59-3.23,7.81,7.81,0,0,1,2.51-2.25,6.5,6.5,0,0,1,3.24-.82,5.61,5.61,0,0,1,2.18.42,4.22,4.22,0,0,1,1.71,1.27,4.87,4.87,0,0,1,1,2.14l.8-3.51h4.33l-3.67,16.24h-3.93l.54-3.05a6.13,6.13,0,0,1-2.12,2.44A5.3,5.3,0,0,1,246,507.43Zm1.74-3.38a2.94,2.94,0,0,0,1.68-.54,4.94,4.94,0,0,0,1.37-1.46,8,8,0,0,0,.92-2.08,8.62,8.62,0,0,0,.33-2.39,4.37,4.37,0,0,0-.38-1.91,2.84,2.84,0,0,0-1.06-1.25A2.8,2.8,0,0,0,249,494a3.37,3.37,0,0,0-1.86.53,4.77,4.77,0,0,0-1.41,1.45,7.47,7.47,0,0,0-.9,2,8.07,8.07,0,0,0-.32,2.29,5.08,5.08,0,0,0,.36,2,2.79,2.79,0,0,0,1.08,1.3A3.2,3.2,0,0,0,247.77,504.05Z" transform="translate(-105.05 -178.87)"/><path class="cls-1" d="M258.91,507.13l3.67-16.24h3.77l-.76,5.1-.29-.42a9.07,9.07,0,0,1,1.36-2.65,6.11,6.11,0,0,1,2-1.74,5.34,5.34,0,0,1,2.53-.61,5.62,5.62,0,0,1,.9.06,1.86,1.86,0,0,1,.65.23l-1.1,3.86a3.68,3.68,0,0,0-.73-.25,4.23,4.23,0,0,0-1-.1,4.5,4.5,0,0,0-2.05.5,4.71,4.71,0,0,0-1.71,1.54,7.64,7.64,0,0,0-1.11,2.73l-1.8,8Z" transform="translate(-105.05 -178.87)"/><path class="cls-1" d="M277.08,483a19.44,19.44,0,0,1,2.88,5.65,21.58,21.58,0,0,1,1,6.6,20.85,20.85,0,0,1-2.83,10.51,20.14,20.14,0,0,1-7.8,7.55l-1.62-2.24a18.55,18.55,0,0,0,4.64-4.44,18.8,18.8,0,0,0,2.78-5.62,21.74,21.74,0,0,0,.94-6.45,20.37,20.37,0,0,0-.65-5.18,17.39,17.39,0,0,0-1.82-4.43Z" transform="translate(-105.05 -178.87)"/></svg>