<svg xmlns="http://www.w3.org/2000/svg" viewBox="0 0 143.21 212"><defs><style>.cls-1{isolation:isolate;}.cls-2{fill:#fff;}.cls-3,.cls-4{fill:#f3bd00;}.cls-4{mix-blend-mode:soft-light;}</style></defs><g class="cls-1"><g id="Layer_1" data-name="Layer 1"><path class="cls-2" d="M462.39,418.69" transform="translate(-428.41 -340)"/><path class="cls-3" d="M498.47,372H485v61.92c0,5.57,3.82,10.08,8.53,10.08h4.94c4.71,0,8.53-4.51,8.53-10.08V372Z" transform="translate(-428.41 -340)"/><rect class="cls-3" x="31.59" width="70" height="28" rx="10.78"/><path class="cls-4" d="M571.59,548.68,554.82,411.11a3,3,0,0,0-3-2.61H512.3a3,3,0,0,0-3,2.9L509.07,423a3,3,0,0,0,3,3h0a3,3,0,0,1,3,3V445a3,3,0,0,1-3,3H506a3,3,0,0,0-3,3v35a3,3,0,0,0,3,3l16.94-.24a3,3,0,0,1,3,3v38.9a3,3,0,0,1-2.91,3l-22,.4a3,3,0,0,1-3-3V519.92a3,3,0,0,0-2.92-3l-27.38-.41a3,3,0,0,1-2.91-3.24l7.63-84a3.25,3.25,0,0,1,3.81-3,5.12,5.12,0,0,0,6.24-5l-.05-9.9a3,3,0,0,0-3-2.95H449.11a3,3,0,0,0-2.94,2.59L428.43,548.66a3,3,0,0,0,2.94,3.34H568.65A3,3,0,0,0,571.59,548.68ZM535.5,440c-3.61,0-6.22-4.24-3.13-8a2.87,2.87,0,0,1,2.22-1h10.82a2.87,2.87,0,0,1,2.22,1c3.09,3.77.48,8-3.13,8Zm2,21c-3.61,0-6.22-4.24-3.13-8a2.87,2.87,0,0,1,2.22-1h10.82a2.87,2.87,0,0,1,2.22,1c3.09,3.77.48,8-3.13,8Zm2,21c-3.61,0-6.22-4.24-3.13-8a2.87,2.87,0,0,1,2.22-1h10.82a2.87,2.87,0,0,1,2.22,1c3.09,3.77.48,8-3.13,8Zm2,21c-3.61,0-6.22-4.24-3.13-8a2.87,2.87,0,0,1,2.22-1h10.82a2.87,2.87,0,0,1,2.22,1c3.09,3.77.48,8-3.13,8Zm11,21h-9.91a2.87,2.87,0,0,1-2.22-1c-3.09-3.77-.48-8,3.13-8h9.91a2.87,2.87,0,0,1,2.22,1C558.72,519.76,556.11,524,552.5,524Z" transform="translate(-428.41 -340)"/><path class="cls-3" d="M533,347v13c3.9-.18,7-3,7-6.48S536.9,347.2,533,347Z" transform="translate(-428.41 -340)"/></g></g></svg>