<svg id="Layer_1" data-name="Layer 1" xmlns="http://www.w3.org/2000/svg" viewBox="0 0 243.12 136.97"><defs><style>.cls-1{fill:#fff;stroke:#fff;stroke-miterlimit:10;}</style></defs><path class="cls-1" d="M161,384.1l24-89.85h32q13.64,0,23.26,4.69a34.45,34.45,0,0,1,14.73,13A35.81,35.81,0,0,1,260.05,331a53.91,53.91,0,0,1-4.07,21.1A49.15,49.15,0,0,1,244.23,369a53.49,53.49,0,0,1-18.41,11.16,68.58,68.58,0,0,1-23.89,4Zm20.21-12.39H203a40.64,40.64,0,0,0,16.6-3.26A36,36,0,0,0,232,359.6a39.85,39.85,0,0,0,7.68-12.67,41.45,41.45,0,0,0,2.66-14.7,28.26,28.26,0,0,0-3-13.14,21.63,21.63,0,0,0-9-9.12q-6-3.33-15.43-3.34H198.64Z" transform="translate(-160.39 -293.75)"/><path class="cls-1" d="M312.69,294.25l-24,89.85H271.8l24-89.85Z" transform="translate(-160.39 -293.75)"/><path class="cls-1" d="M306.27,384.1l62-89.85H389l13.94,89.85H386.64L383,359.73H340.89L324.6,384.1Zm42.61-36.21h32.74l-5.95-40Z" transform="translate(-160.39 -293.75)"/><path class="cls-1" d="M189.46,430.22l6.77-25.36h6.46l1.94,14.71.53,6h.05l3.58-6,9.68-14.75h7.26L219,430.22h-4.33l3.89-14.68,2-6.92h-.09l-14.41,21.6H202.2l-3-21.52h-.05l-1.46,6.84-3.89,14.68Z" transform="translate(-160.39 -293.75)"/><path class="cls-1" d="M227.36,430.22l6.77-25.36H255l-1,3.53h-16l-1.94,7.3h12.6l-.89,3.46H235.1l-2,7.53h16.67l-1,3.54Z" transform="translate(-160.39 -293.75)"/><path class="cls-1" d="M255,430.22l6.77-25.36h6.45l1.95,14.71.53,6h0l3.59-6L284,404.86h7.25l-6.76,25.36h-4.34l3.9-14.68,2-6.92H286l-14.42,21.6h-3.84l-3-21.52h0l-1.46,6.84-3.89,14.68Z" transform="translate(-160.39 -293.75)"/><path class="cls-1" d="M292.9,430.22l6.77-25.36H311a9.72,9.72,0,0,1,5.9,1.55,5,5,0,0,1,2.11,4.21,6.64,6.64,0,0,1-.82,3.32,7,7,0,0,1-2.24,2.39,8.78,8.78,0,0,1-3.27,1.28v0a5.82,5.82,0,0,1,3.52,1.62,4.37,4.37,0,0,1,1.35,3.22,6.53,6.53,0,0,1-1.42,4.27,8.47,8.47,0,0,1-3.91,2.59,17.73,17.73,0,0,1-5.82.87Zm5.62-3.42H306a8.82,8.82,0,0,0,4.93-1.15,3.69,3.69,0,0,0,1.71-3.23,2.78,2.78,0,0,0-.53-1.73,3.22,3.22,0,0,0-1.57-1,8.36,8.36,0,0,0-2.59-.35h-7.47Zm2.87-10.95h6.81a8.18,8.18,0,0,0,3.23-.58,4.64,4.64,0,0,0,2-1.6,4,4,0,0,0,.71-2.36,2.4,2.4,0,0,0-1.26-2.32,6.76,6.76,0,0,0-3.21-.68h-6.28Z" transform="translate(-160.39 -293.75)"/><path class="cls-1" d="M321.91,430.22l6.77-25.36H349.5l-1,3.53h-16l-2,7.3h12.61l-.89,3.46h-12.6l-2,7.53h16.67l-1,3.54Z" transform="translate(-160.39 -293.75)"/><path class="cls-1" d="M349.55,430.22l6.76-25.36h10.44a10.46,10.46,0,0,1,6.52,1.84,6.11,6.11,0,0,1,2.41,5.15,6.94,6.94,0,0,1-1.23,4.07,9,9,0,0,1-3.28,2.83,12.64,12.64,0,0,1-4.46,1.32l-2,.31h-8.44l.88-3.42h7.3a8.48,8.48,0,0,0,3.6-.67,4.89,4.89,0,0,0,2.15-1.83,4.75,4.75,0,0,0,.7-2.53,3,3,0,0,0-1.39-2.67,6.72,6.72,0,0,0-3.74-.91h-5.61l-5.84,21.87Zm18.75,0-4.95-10.84,4.55-.57,5.4,11.41Z" transform="translate(-160.39 -293.75)"/><text x="-160.39" y="-293.75"/></svg>